<svg xmlns="http://www.w3.org/2000/svg" version="1.1" xmlns:xlink="http://www.w3.org/1999/xlink" xmlns:svgjs="http://svgjs.dev/svgjs" width="100%" height="100%" viewBox="0 0 1000 600"><rect width="1000" height="600" x="0" y="0" fill="#334155"/><g><rect width="333.3333333333333" height="333.3333333333333" rx="13.333333333333334" ry="13.333333333333334" y="136.20366280588632" fill="#38bdf8" transform="matrix(1.0966698203658762,0,0,1.0966698203658762,0,-32.14875026616113)" x="113.98143768310547"/><path d="M280.6481043726917 377.87032906458666L280.6481043726917 377.87032906458666Q265.19174938951414 377.87032906458666 252.9679185592331 372.19303874563394Q240.7440877289521 366.54291249519287 232.1874061477554 356.5193712143625Q223.63072456655868 346.49582993353204 219.09432512509886 332.7508112665938Q214.5307616151273 319.00579259965565 214.5307616151273 302.8703359036847L214.5307616151273 302.8703359036847Q214.5307616151273 286.7348792077138 218.93134071402844 272.98986054077557Q223.33191981292958 259.24484187383734 231.8071091885911 249.2213005930069Q240.25513449574086 239.1977593121765 252.58762160006881 233.5476330617355Q264.89294463588504 227.87034274278275 280.6481043726917 227.87034274278275L280.6481043726917 227.87034274278275Q295.9958030818223 227.87034274278275 308.2739620491268 233.5476330617355Q320.5521210164313 239.1977593121765 329.10880259762797 249.2213005930069Q337.66548417882467 259.24484187383734 342.20188362028455 272.98986054077557Q346.7654471302561 286.7348792077138 346.7654471302561 302.8703359036847L346.7654471302561 302.8703359036847Q346.7654471302561 319.00579259965565 342.36486803135494 332.7508112665938Q337.96428893245377 346.49582993353204 329.48909955679227 356.5193712143625Q321.0410742496425 366.54291249519287 308.70858714531454 372.19303874563394Q296.4032641094983 377.87032906458666 280.6481043726917 377.87032906458666ZM326.41955981496614 305.9127115769991L326.41955981496614 305.9127115769991Q326.41955981496614 298.0894598456192 325.3329970744967 290.510684730845Q324.27359840253905 282.93190961607075 321.91032444201807 276.11372841962515Q319.5742145500088 269.32271129169123 315.852737163901 263.5096006301798Q312.1312597777932 257.6964899686684 306.9972508290752 253.4860593493494Q301.8632418803572 249.2756287300304 295.1808810264702 246.88519070099767Q288.47135610407156 244.49475267196493 280.0504948654335 244.49475267196493L280.0504948654335 244.49475267196493Q268.0439765832464 244.49475267196493 259.4872950020497 249.1398083874717Q250.93061342085295 253.7848641029785 245.44347158148236 261.49945956031144Q239.9563297421118 269.24121908615604 237.43007137052035 279.1017759559161Q234.87664893041722 288.9894968941878 234.87664893041722 299.447663271206L234.87664893041722 299.447663271206Q234.87664893041722 307.3795712766328 236.0175398079101 314.98551045991877Q237.13126661689128 322.6186137117165 239.46737650890054 329.5182871136973Q241.83065046942153 336.41796051567815 245.49779971850583 342.23107117718956Q249.16494896759013 348.044181838701 254.29895791630818 352.25461245801995Q259.4329668650262 356.465043077339 266.11532771891314 358.8554811063717Q272.82485264131185 361.24591913540445 281.24571387994985 361.24591913540445L281.24571387994985 361.24591913540445Q289.1504578168649 361.24591913540445 295.61550612265796 359.04562958595386Q302.0533903599393 356.8453400365033 307.10590710312215 353.0423704448603Q312.1312597777932 349.21223678470557 315.74408088985405 343.9424074934289Q319.3840660704266 338.6725782021522 321.77450409945936 332.56066278701167Q324.16494212849204 326.4487473718712 325.27866893747324 319.63056617542554Q326.41955981496614 312.83954904749163 326.41955981496614 305.9127115769991Z " fill="#334155" transform="matrix(1.0966698203658762,0,0,1.0966698203658762,0,-32.14875026616113)"/><path d="M596.6451562706909 377.8703210095327L596.6451562706909 377.8703210095327Q581.9832271049966 377.8703210095327 569.8568195243471 372.13783742595297Q557.767158633336 366.36860715273485 549.0214464994131 356.2632675021936Q540.3124810551283 346.12118116201407 535.4619180228685 332.3044258580013Q530.6481016802471 318.4876705539886 530.6481016802471 302.46611387167593L530.6481016802471 302.46611387167593Q530.6481016802471 286.4813038790016 535.278184574677 272.77478864390383Q539.9082674691067 259.0682734088061 548.5069928444764 249.10992051681816Q557.105718219846 239.11482093519194 569.3423658694105 233.49257742052717Q581.579013518975 227.8703339058624 596.6451562706909 227.8703339058624L596.6451562706909 227.8703339058624Q611.3438321260237 227.8703339058624 623.5069863963115 233.49257742052717Q635.6701406665993 239.11482093519194 644.4158528005223 249.10992051681816Q653.1615649344452 259.0682734088061 658.0488746563434 272.77478864390383Q662.9361843782415 286.4813038790016 662.9361843782415 302.46611387167593L662.9361843782415 302.46611387167593Q662.9361843782415 318.4876705539886 658.2326081045351 332.3044258580013Q653.5290318308286 346.12118116201407 644.9303064554589 356.2632675021936Q636.3315810800893 366.36860715273485 624.0581867408864 372.13783742595297Q611.7480457120453 377.8703210095327 596.6451562706909 377.8703210095327ZM637.8014486656225 306.0305427665941L637.8014486656225 306.0305427665941Q637.8014486656225 295.33725608183954 635.4864072184076 285.0114362934683Q633.1713657711928 274.6856165050971 628.1370692907414 266.56459809502576Q623.1027728102899 258.4068329953161 615.1654878484102 253.409283204503Q607.2282028865305 248.37498672405152 596.1307026157543 248.37498672405152L596.1307026157543 248.37498672405152Q585.5476559999147 248.37498672405152 577.8675978655034 252.74784279101303Q570.1875397310921 257.08395216833617 565.3002300091939 264.35979671672584Q560.4129202872958 271.63564126511557 558.097878840081 280.89580705397515Q555.782837392866 290.15597284283473 555.782837392866 299.96733897626933L555.782837392866 299.96733897626933Q555.782837392866 310.6606256610239 558.097878840081 320.98644544939515Q560.4129202872958 331.3122652377664 565.3737233884706 339.39653695819936Q570.3345264896454 347.444061988994 578.1983180722484 352.4048650901688Q586.0621096548514 357.36566819134356 597.1963566152659 357.36566819134356L597.1963566152659 357.36566819134356Q607.6324164725522 357.36566819134356 615.3124746069635 352.99281212438217Q622.9925327413748 348.65670274705894 628.0268292218263 341.4176048883076Q633.0243790126394 334.21525371919455 635.412913839131 324.95508793033497Q637.8014486656225 315.6949221414754 637.8014486656225 306.0305427665941ZM795.224267076236 351.81691805595545L797.8700287301958 375.6287729415945L770.089531363617 375.6287729415945L770.089531363617 354.20545288244705L757.6691502658608 369.0143688066948Q755.3908555082843 370.74146321969636 752.4878670268561 372.32157087414464Q749.5848785454278 373.90167852859287 746.608396684723 375.15106597629614Q743.631914824018 376.4372001136378 740.6554329633132 377.1353872167661Q737.6789511026084 377.8703210095327 735.1801762072017 377.8703210095327L735.1801762072017 377.8703210095327Q725.2585700048522 377.8703210095327 716.1821376641842 374.7835990799129Q707.1057053235163 371.66013046065467 700.3075677404249 365.6336733599682Q693.5094301573336 359.60721625928187 689.4672942971171 350.6777706771672Q685.4251584369006 341.7483250950526 685.4251584369006 330.1363711693397L685.4251584369006 330.1363711693397Q685.4251584369006 317.8262301404986 690.3859615380753 308.7497977998307Q695.3467646392502 299.71011214880104 703.1003161529381 293.68365504811464Q710.8171209769878 287.6571979474282 720.3345135933157 284.68071608672335Q729.8886528992821 281.70423422601846 739.0018319295883 281.70423422601846L739.0018319295883 281.70423422601846Q746.5349033054463 281.70423422601846 752.3041335786644 282.51266139806177Q758.0366171622442 283.28434188046674 762.005259643184 284.34999587997834L762.005259643184 284.34999587997834Q766.6353425376137 285.525889948405 770.089531363617 286.9957575339382L770.089531363617 286.9957575339382L770.089531363617 282.3656746395084Q770.089531363617 274.5753764361821 769.1708641226587 268.3284391976657Q768.2521968817005 262.11824864878764 765.3859550899106 257.8188859611028Q762.5564599877589 253.519523273418 757.1914433005625 251.27797520547975Q751.826426613366 249.0364271375415 742.9704744105281 249.0364271375415L742.9704744105281 249.0364271375415Q735.8416166206918 249.0364271375415 729.227212485792 250.02858775777648Q722.6128083508924 251.02074837801143 717.4315251118876 252.19664244643803L717.4315251118876 252.19664244643803Q711.3683213215628 253.6665100319713 706.187038082558 255.2466176864196L706.187038082558 255.2466176864196L696.6696454662301 237.53471328074366Q702.4756224290865 234.88895162678378 709.8984537360295 232.75764362776053L709.8984537360295 232.75764362776053Q716.2556310434609 230.92030914584393 724.9645964877456 229.376948181034Q733.7103086216684 227.8703339058624 744.2933552375081 227.8703339058624L744.2933552375081 227.8703339058624Q759.5064847477774 227.8703339058624 769.428090950127 231.94921645571722Q779.3496971524767 236.0648456952104 785.045434046418 243.48767700215342Q790.7411709403593 250.8737616194581 792.9827190082976 261.273074787106Q795.224267076236 271.63564126511557 795.224267076236 284.34999587997834L795.224267076236 284.34999587997834L795.224267076236 351.81691805595545ZM770.089531363617 339.39653695819936L770.089531363617 305.1118755256358Q766.3781157101455 304.5974218706992 762.1522464017373 304.04622152612416L762.1522464017373 304.04622152612416Q758.5878175068191 303.67875462974087 753.9577346123893 303.27454104371924Q749.3276517179595 302.87032745769756 744.2933552375081 302.87032745769756L744.2933552375081 302.87032745769756Q736.870523930565 302.87032745769756 730.7338267609637 304.34019504323084Q724.5971295913622 305.7733159391258 720.0772867658474 309.00702462729896Q715.594190629971 312.27748000511053 713.0586690449261 317.42201655447695Q710.5598941495196 322.56655310384343 710.5598941495196 329.9893844107864L710.5598941495196 329.9893844107864Q710.5598941495196 335.9423481321962 712.5442153899894 340.8296578540943Q714.5285366304593 345.71696757599244 717.9827254564625 349.31814316054897Q721.4001675928273 352.8825720554671 726.1037438665338 354.79339991666035Q730.8073201402403 356.70422777785365 736.209083517075 356.70422777785365L736.209083517075 356.70422777785365Q738.74460510212 356.70422777785365 741.5741002042715 355.96929398508695Q744.4403419960614 355.2711068819587 747.269837098213 354.05846612389377Q750.0993322003645 352.8825720554671 752.9655739921543 351.3024644010189Q755.795069094306 349.68561005693226 758.3305906793507 348.105502402484L758.3305906793507 348.105502402484Q764.2835544007605 344.2838466800975 770.089531363617 339.39653695819936L770.089531363617 339.39653695819936Z " fill="#38bdf8" transform="matrix(1.0966698203658762,0,0,1.0966698203658762,0,-32.14875026616113)"/></g></svg>